*
*
G04 PADS Layout (Build Number 2007.45.1) generated Gerber (RS-274-X) file*
G04 PC Version=2.1*
*
%IN "IRMRAK_C_PD_blz.pcb"*%
*
%MOIN*%
*
%FSLAX35Y35*%
*
*
*
*
G04 PC Standard Apertures*
*
*
G04 Thermal Relief Aperture macro.*
%AMTER*
1,1,$1,0,0*
1,0,$1-$2,0,0*
21,0,$3,$4,0,0,45*
21,0,$3,$4,0,0,135*
%
*
*
G04 Annular Aperture macro.*
%AMANN*
1,1,$1,0,0*
1,0,$2,0,0*
%
*
*
G04 Odd Aperture macro.*
%AMODD*
1,1,$1,0,0*
1,0,$1-0.005,0,0*
%
*
*
G04 PC Custom Aperture Macros*
*
*
*
*
*
*
G04 PC Aperture Table*
*
%ADD010R,0.039X0.039*%
%ADD012R,0.07X0.07*%
%ADD013C,0.23622*%
%ADD014C,0.05*%
%ADD018C,0.015*%
%ADD025C,0.01*%
%ADD040R,0.06X0.06*%
%ADD041C,0.08*%
%ADD043R,0.065X0.065*%
%ADD044R,0.055X0.055*%
%ADD045R,0.05X0.05*%
%ADD046R,0.085X0.085*%
%ADD047C,0.085*%
%ADD048R,0.1X0.1*%
%ADD049C,0.1*%
%ADD050C,0.22362*%
%ADD051R,0.025X0.025*%
%ADD052C,0.025*%
%ADD053R,0.2X0.2*%
%ADD054C,0.024*%
%ADD055C,0.035*%
*
*
*
*
G04 PC Copper Outlines (0)*
G04 Layer Name IRMRAK_C_PD_blz.pcb - dark (0)*
%LPD*%
*
*
G04 PC Area=DRW26402539*
G75*
G36*
G01*
X1958066Y1795670D02*
X1950255D01*
Y1804576D01*
X1948286D01*
Y1791670D01*
X1958066D01*
Y1795670D01*
G37*
G74*
*
*
G04 PC Copper Outlines (1)*
G04 Layer Name IRMRAK_C_PD_blz.pcb - dark (1)*
%LPD*%
*
*
G04 PC Area=DRW98152102*
G75*
G36*
G01*
X1977909Y1796295D02*
X1970097D01*
Y1804732D01*
X1968441D01*
Y1793077D01*
X1977909D01*
Y1796295D01*
G37*
G74*
*
*
G04 PC Copper Outlines (2)*
G04 Layer Name IRMRAK_C_PD_blz.pcb - dark (2)*
%LPD*%
*
*
G04 PC Area=ANP000031*
G75*
G36*
G01*
X2059933Y1794566D02*
X2059787Y1794920D01*
X2059433Y1795066D01*
X2059080Y1794920D01*
X2058729Y1794570D01*
X2057812Y1794192D01*
X2051248D01*
X2050375Y1794530D01*
X2050030Y1794845D01*
X2049692Y1794976D01*
X2049491D01*
X2048841Y1794926D01*
X2044308D01*
X2043922Y1794744D01*
X2043680Y1794451D01*
X2042992Y1794126D01*
X2039792D01*
X2039003Y1794582D01*
X2038547Y1795371D01*
Y1800496D01*
X2038374Y1800875D01*
X2038175Y1801060D01*
X2035644Y1803590D01*
X2035291Y1803737D01*
X2034937Y1803590D01*
X2034791Y1803237D01*
Y1801623D01*
X2034539Y1800682D01*
X2034052Y1799838D01*
X2032321Y1798107D01*
X2032221Y1798011D01*
X2030212Y1796148D01*
X2030186Y1796122D01*
X2029834Y1795744D01*
X2028952Y1795206D01*
X2027958Y1794926D01*
X2021796D01*
X2020579Y1795358D01*
X2019577Y1796171D01*
X2018905Y1797272D01*
X2018771Y1797903D01*
X2018470Y1798263D01*
X2018003Y1798215D01*
X2017782Y1797800D01*
Y1793025D01*
X2017929Y1792671D01*
X2018282Y1792525D01*
X2019579D01*
X2020498Y1792144D01*
X2021202Y1791441D01*
X2021582Y1790522D01*
Y1779528D01*
X2021202Y1778609D01*
X2020498Y1777906D01*
X2019579Y1777525D01*
X2009082D01*
X2008015Y1777721D01*
X2004170D01*
X2003381Y1778177D01*
X2002925Y1778966D01*
Y1790143D01*
X2002779Y1790496D01*
X2002425Y1790643D01*
X1986449D01*
X1986096Y1790496D01*
X1985949Y1790143D01*
Y1778809D01*
X1985494Y1778020D01*
X1984705Y1777565D01*
X1978795D01*
X1978132Y1777862D01*
X1977890Y1778133D01*
X1977616Y1778290D01*
X1977302Y1778252D01*
X1976445Y1777844D01*
X1974581Y1777482D01*
X1972686Y1777595D01*
X1970879Y1778177D01*
X1969273Y1779192D01*
X1967972Y1780574D01*
X1967055Y1782237D01*
X1966582Y1784076D01*
Y1785025D01*
X1966620Y1785776D01*
X1966510Y1786142D01*
X1966173Y1786323D01*
X1965751Y1786366D01*
X1965046Y1786840D01*
X1964647Y1787590D01*
Y1799393D01*
X1964969Y1800079D01*
X1965260Y1800322D01*
X1965441Y1800706D01*
Y1805329D01*
X1965897Y1806431D01*
X1966741Y1807275D01*
X1967844Y1807732D01*
X1968863D01*
X1968919Y1807735D01*
X1969759D01*
X1969815Y1807732D01*
X1970097D01*
X1970505Y1807704D01*
X1970808Y1807758D01*
X1971022Y1807978D01*
X1971722Y1808955D01*
X1977728Y1814961D01*
X1978572Y1815448D01*
X1979513Y1815700D01*
X1988487D01*
X1989428Y1815448D01*
X1990272Y1814961D01*
X1993386Y1811846D01*
X1993740Y1811700D01*
X1998039D01*
X1998393Y1811846D01*
X1998539Y1812200D01*
Y1817433D01*
X1998911Y1818342D01*
X1999599Y1819043D01*
X2000501Y1819432D01*
X2000992Y1819441D01*
X2001395Y1819660D01*
X2001451Y1820115D01*
X2001248Y1820659D01*
X2001043Y1821801D01*
Y1822382D01*
X2001108Y1823301D01*
X2000967Y1823725D01*
X1998415Y1826277D01*
X1998061Y1826424D01*
X1973638D01*
X1973284Y1826277D01*
X1973138Y1825924D01*
Y1816361D01*
X1972682Y1815572D01*
X1971893Y1815117D01*
X1940437D01*
X1939648Y1815572D01*
X1939192Y1816361D01*
Y1822376D01*
X1939000Y1822769D01*
X1938572Y1822861D01*
X1938236Y1822580D01*
X1938037Y1822137D01*
X1937339Y1821464D01*
X1936439Y1821102D01*
X1929897D01*
X1929043Y1821424D01*
X1928700Y1821727D01*
X1928370Y1821852D01*
X1920086D01*
X1919733Y1821705D01*
X1914862Y1816835D01*
X1914716Y1816481D01*
Y1812290D01*
X1914928Y1811881D01*
X1915385Y1811819D01*
X1916180Y1812105D01*
X1917864Y1812266D01*
X1919535Y1812007D01*
X1921091Y1811344D01*
X1921763Y1810831D01*
X1922240Y1810759D01*
X1922556Y1811126D01*
X1922644Y1811547D01*
X1923092Y1812283D01*
X1923760Y1812826D01*
X1924572Y1813114D01*
X1929322D01*
X1930114Y1812840D01*
X1930444Y1812582D01*
X1930753Y1812475D01*
X1931061Y1812582D01*
X1931391Y1812840D01*
X1932183Y1813114D01*
X1936918D01*
X1937705Y1812845D01*
X1938362Y1812336D01*
X1938591Y1811989D01*
X1939008Y1811764D01*
X1939965D01*
X1940880Y1811963D01*
X1943244D01*
X1944159Y1811764D01*
X1955987D01*
X1956928Y1811512D01*
X1957772Y1811025D01*
X1959908Y1808889D01*
X1960004Y1808789D01*
X1961867Y1806780D01*
X1961893Y1806754D01*
X1962271Y1806402D01*
X1962809Y1805520D01*
X1963089Y1804525D01*
Y1798365D01*
X1962660Y1797153D01*
X1961852Y1796152D01*
X1961304Y1795815D01*
X1961130Y1795633D01*
X1961066Y1795389D01*
Y1791074D01*
X1960610Y1789971D01*
X1959766Y1789127D01*
X1958663Y1788670D01*
X1955765D01*
X1955412Y1788524D01*
X1955265Y1788170D01*
Y1782180D01*
X1954885Y1781261D01*
X1954181Y1780558D01*
X1953262Y1780177D01*
X1949823D01*
X1948994Y1780480D01*
X1948318Y1781048D01*
X1947877Y1781814D01*
X1947802Y1782250D01*
X1947685Y1782494D01*
X1947457Y1782642D01*
X1947025Y1782775D01*
X1946252Y1783241D01*
X1943819Y1785674D01*
X1943425Y1785819D01*
X1943060Y1785613D01*
X1942820Y1785281D01*
X1942091Y1784908D01*
X1938862D01*
X1938073Y1785364D01*
X1937618Y1786153D01*
Y1789978D01*
X1937469Y1790334D01*
X1937115Y1790684D01*
X1936613Y1791544D01*
X1936353Y1792505D01*
Y1795966D01*
X1936220Y1796306D01*
X1935397Y1797193D01*
X1935384Y1797207D01*
X1935283Y1797307D01*
X1934930Y1797453D01*
X1929353D01*
X1929000Y1797307D01*
X1928853Y1796953D01*
Y1792401D01*
X1928476Y1791257D01*
X1927760Y1790289D01*
X1926777Y1789594D01*
X1925625Y1789241D01*
X1924421Y1789267D01*
X1923286Y1789668D01*
X1922809Y1790037D01*
X1922358Y1790119D01*
X1922029Y1789799D01*
X1921862Y1789299D01*
X1921151Y1788518D01*
X1920186Y1788091D01*
X1912818D01*
X1912164Y1788272D01*
X1911873Y1788446D01*
X1911534Y1788511D01*
X1911234Y1788341D01*
X1911116Y1788017D01*
Y1782078D01*
X1911262Y1781725D01*
X1915287Y1777700D01*
X1915641Y1777553D01*
X1921327D01*
X1921587Y1777626D01*
X1921771Y1777824D01*
X1922060Y1778384D01*
X1922973Y1779254D01*
X1924121Y1779777D01*
X1925376Y1779896D01*
X1926601Y1779598D01*
X1927662Y1778917D01*
X1928441Y1777925D01*
X1928853Y1776734D01*
Y1773141D01*
X1928987Y1772801D01*
X1929810Y1771914D01*
X1929823Y1771900D01*
X1932415Y1769308D01*
X1932574Y1769201D01*
X1932905Y1769061D01*
X1933501Y1768661D01*
X1933852Y1768310D01*
X1934165Y1768166D01*
X1934498Y1768259D01*
X1934691Y1768546D01*
X1934780Y1768911D01*
X1935165Y1769558D01*
X1935723Y1770062D01*
X1936064Y1770221D01*
X1936275Y1770405D01*
X1936353Y1770674D01*
Y1776765D01*
X1936805Y1778007D01*
X1937655Y1779020D01*
X1938801Y1779682D01*
X1940103Y1779911D01*
X1941405Y1779682D01*
X1942551Y1779020D01*
X1943401Y1778007D01*
X1943853Y1776765D01*
Y1771603D01*
X1943753Y1770687D01*
Y1765155D01*
X1943520Y1763775D01*
Y1763273D01*
X1943658Y1762929D01*
X1943994Y1762774D01*
X1944777Y1762733D01*
X1946291Y1762331D01*
X1946990Y1761979D01*
X1947320Y1761936D01*
X1947604Y1762111D01*
X1947715Y1762425D01*
Y1768774D01*
X1948096Y1769693D01*
X1948799Y1770396D01*
X1949718Y1770777D01*
X1968312D01*
X1969231Y1770396D01*
X1969935Y1769693D01*
X1970315Y1768774D01*
Y1760780D01*
X1969935Y1759861D01*
X1969231Y1759158D01*
X1968312Y1758777D01*
X1964383D01*
X1964070Y1758667D01*
X1963895Y1758386D01*
X1963739Y1757692D01*
X1963054Y1756445D01*
X1958357Y1751748D01*
X1957877Y1751326D01*
X1957685Y1750973D01*
X1957815Y1750592D01*
X1958183Y1750430D01*
X1995219D01*
X1995573Y1750577D01*
X2000882Y1755886D01*
X2001028Y1756239D01*
Y1758081D01*
X2001281Y1759022D01*
X2001768Y1759866D01*
X2009718Y1767816D01*
X2009865Y1768170D01*
Y1771727D01*
X2010245Y1772646D01*
X2010949Y1773349D01*
X2011868Y1773730D01*
X2020062D01*
X2020981Y1773349D01*
X2021684Y1772646D01*
X2022065Y1771727D01*
Y1768170D01*
X2022211Y1767816D01*
X2023982Y1766046D01*
X2024335Y1765900D01*
X2029865D01*
X2030195Y1766025D01*
X2030538Y1766327D01*
X2031392Y1766650D01*
X2037449D01*
X2037831Y1766620D01*
X2038233Y1766735D01*
X2038407Y1767114D01*
Y1767491D01*
X2038700Y1767784D01*
X2053607D01*
X2053960Y1767930D01*
X2054107Y1768284D01*
Y1771516D01*
X2054115Y1771746D01*
X2053969Y1772100D01*
X2053615Y1772246D01*
X2047477D01*
X2046688Y1772702D01*
X2046232Y1773491D01*
Y1778803D01*
X2045958Y1780056D01*
Y1790553D01*
X2046339Y1791472D01*
X2047042Y1792175D01*
X2047961Y1792556D01*
X2058458D01*
X2059270Y1792420D01*
X2059723Y1792486D01*
X2059933Y1792893D01*
Y1794566D01*
G37*
G74*
*
*
G04 PC Copper Outlines (3)*
G04 Layer Name IRMRAK_C_PD_blz.pcb - dark (3)*
%LPD*%
*
*
G04 PC Area=ANP000029*
G75*
G36*
G01*
X2059933Y1830990D02*
X2059762Y1831366D01*
X2055692Y1834935D01*
X2055362Y1835059D01*
X2052998D01*
X2052645Y1834913D01*
X2052498Y1834559D01*
X2052591Y1833676D01*
Y1833082D01*
X2052223Y1831951D01*
X2051874Y1831470D01*
X2051778Y1831176D01*
X2051874Y1830882D01*
X2051891Y1830858D01*
X2052298Y1830649D01*
X2057812D01*
X2058729Y1830270D01*
X2059080Y1829920D01*
X2059433Y1829774D01*
X2059787Y1829921D01*
X2059933Y1830274D01*
Y1830990D01*
G37*
G74*
*
*
G04 PC Copper Outlines (4)*
G04 Layer Name IRMRAK_C_PD_blz.pcb - dark (4)*
%LPD*%
*
*
G04 PC Area=ANP000021*
G75*
G36*
G01*
X2027391Y1804426D02*
X2027244Y1804780D01*
X2026891Y1804926D01*
X2023950D01*
X2023623Y1804804D01*
X2022667Y1803976D01*
X2022641Y1803951D01*
X2021968Y1803278D01*
X2021822Y1802920D01*
X2021975Y1802565D01*
X2022336Y1802425D01*
X2022441Y1802426D01*
X2025903D01*
X2026243Y1802560D01*
X2027131Y1803383D01*
X2027144Y1803396D01*
X2027244Y1803496D01*
X2027391Y1803850D01*
Y1804426D01*
G37*
G74*
*
*
G04 PC Copper Outlines (5)*
G04 Layer Name IRMRAK_C_PD_blz.pcb - dark (5)*
%LPD*%
*
*
G04 PC Area=Custom_Thermal*
*
G04 PC Custom Flashes*
G04 Layer Name IRMRAK_C_PD_blz.pcb - flashes*
%LPD*%
*
*
G04 PC Circuitry*
G04 Layer Name IRMRAK_C_PD_blz.pcb - circuitry*
%LPD*%
*
G54D10*
G01X2053666Y1806242D02*
X2055366D01*
X2053666Y1798642D02*
X2055366D01*
X1995389Y1813292D02*
Y1814992D01*
X2002989Y1813292D02*
Y1814992D01*
X2053666Y1820020D02*
X2055366D01*
X2053666Y1812420D02*
X2055366D01*
X2035462Y1845939D02*
Y1844239D01*
X2027862Y1845939D02*
Y1844239D01*
X2053666Y1833799D02*
X2055366D01*
X2053666Y1826199D02*
X2055366D01*
X1934004Y1817952D02*
X1932304D01*
X1934004Y1825552D02*
X1932304D01*
X2035499Y1762199D02*
X2033799D01*
X2035499Y1769799D02*
X2033799D01*
X1926712Y1850448D02*
Y1851648D01*
X1934312Y1850448D02*
Y1851648D01*
X1926712Y1839882D02*
Y1841082D01*
X1934312Y1839882D02*
Y1841082D01*
X1934553Y1808664D02*
Y1807464D01*
X1926953Y1808664D02*
Y1807464D01*
X2010776Y1847576D02*
Y1846376D01*
X2003176Y1847576D02*
Y1846376D01*
X1989339D02*
Y1847576D01*
X1996939Y1846376D02*
Y1847576D01*
X1993641Y1800427D02*
Y1801627D01*
X2001241Y1800427D02*
Y1801627D01*
X1946670Y1766005D02*
Y1764305D01*
X1939070Y1766005D02*
Y1764305D01*
G54D12*
X1958665Y1786177D02*
X1964365D01*
X1953715Y1764777D02*
X1964315D01*
G54D13*
X1918375Y1756924D03*
G54D14*
X1943610Y1755283D02*
X1954821D01*
X1959015Y1759477*
Y1764777*
G54D18*
X2018000Y1798676D02*
Y1800000D01*
X2021676Y1803676*
X2024941*
X2018000Y1798676D02*
Y1798000D01*
X2024000Y1792000*
X2026514*
X2033458Y1785056*
G54D25*
X2057015Y1746974D02*
X2063577D01*
X2057015Y1750155D02*
X2061390Y1746974D01*
X2059827Y1748110D02*
X2063577Y1750155D01*
X2043102Y1748462D02*
X2048727D01*
X2045914Y1746417D02*
Y1750508D01*
X1941392Y1823879D02*
Y1819504D01*
Y1822629D02*
X1942074Y1823567D01*
X1942528Y1823879*
X1943210*
X1943665Y1823567*
X1943892Y1822629*
Y1819504*
Y1822629D02*
X1944574Y1823567D01*
X1945028Y1823879*
X1945710*
X1946165Y1823567*
X1946392Y1822629*
Y1819504*
X1948437Y1823879D02*
Y1819504D01*
Y1822004D02*
X1948665Y1822942D01*
X1949119Y1823567*
X1949574Y1823879*
X1950256*
X1955028D02*
Y1819504D01*
Y1822942D02*
X1954574Y1823567D01*
X1954119Y1823879*
X1953437*
X1952983Y1823567*
X1952528Y1822942*
X1952301Y1822004*
Y1821379*
X1952528Y1820442*
X1952983Y1819817*
X1953437Y1819504*
X1954119*
X1954574Y1819817*
X1955028Y1820442*
X1957074Y1826067D02*
Y1819504D01*
X1959347Y1823879D02*
X1957074Y1820754D01*
X1957983Y1822004D02*
X1959574Y1819504D01*
X1962983Y1826067D02*
X1962301Y1825754D01*
X1961847Y1824817*
X1961619Y1823254*
Y1822317*
X1961847Y1820754*
X1962301Y1819817*
X1962983Y1819504*
X1963437*
X1964119Y1819817*
X1964574Y1820754*
X1964801Y1822317*
Y1823254*
X1964574Y1824817*
X1964119Y1825754*
X1963437Y1826067*
X1962983*
X1967301D02*
X1969801D01*
X1968437Y1823567*
X1969119*
X1969574Y1823254*
X1969801Y1822942*
X1970028Y1822004*
Y1821379*
X1969801Y1820442*
X1969347Y1819817*
X1968665Y1819504*
X1967983*
X1967301Y1819817*
X1967074Y1820129*
X1966847Y1820754*
X2050620Y1776492D02*
X2056245D01*
X2053432Y1774446D02*
Y1778537D01*
X2005125Y1788671D02*
Y1782109D01*
Y1788671D02*
X2007171D01*
X2007852Y1788359*
X2008080Y1788046*
X2008307Y1787421*
Y1786796*
X2008080Y1786171*
X2007852Y1785859*
X2007171Y1785546*
X2005125*
X2006716D02*
X2008307Y1782109D01*
X1981249Y1788515D02*
Y1781952D01*
X1979658Y1788515D02*
X1982840D01*
X1992697Y1842416D02*
X1992470Y1842104D01*
X1992697Y1841791*
X1992924Y1842104*
X1992697Y1842416*
X1941608Y1802576D02*
X1941380Y1802263D01*
X1941608Y1801951*
X1941835Y1802263*
X1941608Y1802576*
X2040975Y1799139D02*
X2040747Y1798826D01*
X2040975Y1798514*
X2041202Y1798826*
X2040975Y1799139*
X1967074Y1791327D02*
X1966847Y1791014D01*
X1967074Y1790702*
X1967302Y1791014*
X1967074Y1791327*
X1940045Y1789921D02*
X1939818Y1789608D01*
X1940045Y1789296*
X1940272Y1789608*
X1940045Y1789921*
X1948286Y1804576D02*
Y1791670D01*
X1958066*
Y1795670*
X1950255*
Y1804576*
X1948286*
X1968441Y1804732D02*
Y1793077D01*
X1977909*
Y1796295*
X1970097*
Y1804732*
X1968441*
X2059933Y1792893D02*
Y1794566D01*
G75*
G03X2059080Y1794920I-500J0D01*
G01X2057316Y1794192D02*
G03X2059080Y1794920I-0J2500D01*
G01X2057316Y1794192D02*
X2051716D01*
X2050030Y1794845D02*
G03X2051716Y1794192I1686J1847D01*
G01X2050030Y1794845D02*
G03X2049692Y1794976I-338J-369D01*
G01X2049692D02*
X2049491D01*
G03X2049414Y1794970I-0J-500*
G01X2048841Y1794926D02*
G03X2049414Y1794970I-0J3750D01*
G01X2048841Y1794926D02*
X2044308D01*
G03X2043922Y1794744I0J-500*
G01X2042611Y1794126D02*
G03X2043922Y1794744I-0J1700D01*
G01X2042611Y1794126D02*
X2040247D01*
X2038547Y1795826D02*
G03X2040247Y1794126I1700J0D01*
G01X2038547Y1795826D02*
Y1800496D01*
G03X2038374Y1800875I-500J0*
G01X2038175Y1801060D02*
G03X2038374Y1800875I2616J2616D01*
G01X2038175Y1801060D02*
X2037631Y1801604D01*
X2035644Y1803590*
G03X2034791Y1803237I-353J-353*
G01Y1802110*
X2033707Y1799494D02*
G03X2034791Y1802110I-2616J2616D01*
G01X2033707Y1799494D02*
X2032321Y1798107D01*
X2032221Y1798011D02*
G03X2032321Y1798107I-2516J2713D01*
G01X2032221Y1798011D02*
X2030212Y1796148D01*
G03X2030186Y1796122I340J-367*
G01X2027441Y1794926D02*
G03X2030186Y1796122I-0J3750D01*
G01X2027441Y1794926D02*
X2022441D01*
X2018771Y1797903D02*
G03X2022441Y1794926I3670J773D01*
G01X2018771Y1797903D02*
G03X2017782Y1797800I-489J-103D01*
G01Y1793025*
G03X2018282Y1792525I500J0*
G01X2019082*
X2021582Y1790025D02*
G03X2019082Y1792525I-2500J0D01*
G01X2021582Y1790025D02*
Y1780025D01*
X2019082Y1777525D02*
G03X2021582Y1780025I0J2500D01*
G01X2019082Y1777525D02*
X2009082D01*
X2008193Y1777688D02*
G03X2009082Y1777525I889J2337D01*
G01X2008193Y1777688D02*
G03X2008015Y1777721I-178J-467D01*
G01X2004625*
X2002925Y1779421D02*
G03X2004625Y1777721I1700J0D01*
G01X2002925Y1779421D02*
Y1790143D01*
G03X2002425Y1790643I-500J-0*
G01X1986449*
G03X1985949Y1790143I0J-500*
G01Y1779265*
X1984249Y1777565D02*
G03X1985949Y1779265I0J1700D01*
G01X1984249Y1777565D02*
X1979158D01*
X1977890Y1778133D02*
G03X1979158Y1777565I1268J1132D01*
G01X1977890Y1778133D02*
G03X1977302Y1778252I-373J-333D01*
G01X1966620Y1785776D02*
G03X1977302Y1778252I7462J-751D01*
G01X1966620Y1785776D02*
G03X1966173Y1786323I-498J50D01*
G01X1964647Y1788014D02*
G03X1966173Y1786323I1700J0D01*
G01X1964647Y1788014D02*
Y1799014D01*
X1965260Y1800322D02*
G03X1964647Y1799014I1087J-1308D01*
G01X1965260Y1800322D02*
G03X1965441Y1800706I-319J384D01*
G01Y1804732*
X1968441Y1807732D02*
G03X1965441Y1804732I-0J-3000D01*
G01X1968441Y1807732D02*
X1968863D01*
G03X1968919Y1807735I-0J500*
G01X1969759D02*
G03X1968919I-420J-3726D01*
G01X1969759D02*
G03X1969815Y1807732I56J497D01*
G01X1970097*
X1970505Y1807704D02*
G03X1970097Y1807732I-408J-2972D01*
G01X1970505Y1807704D02*
G03X1971022Y1807978I68J495D01*
G01X1971722Y1808955D02*
G03X1971022Y1807978I2617J-2616D01*
G01X1971722Y1808955D02*
X1977384Y1814616D01*
X1980000Y1815700D02*
G03X1977384Y1814616I0J-3700D01*
G01X1980000Y1815700D02*
X1988000D01*
X1990616Y1814616D02*
G03X1988000Y1815700I-2616J-2616D01*
G01X1990616Y1814616D02*
X1993386Y1811846D01*
G03X1993740Y1811700I354J354*
G01X1998039*
G03X1998539Y1812200I0J500*
G01Y1816942*
X2000992Y1819441D02*
G03X1998539Y1816942I47J-2499D01*
G01X2000992Y1819441D02*
G03X2001451Y1820115I-10J500D01*
G01X2001108Y1823301D02*
G03X2001451Y1820115I6435J-919D01*
G01X2001108Y1823301D02*
G03X2000967Y1823725I-495J71D01*
G01X1998415Y1826277*
G03X1998061Y1826424I-354J-353*
G01X1996052*
X1973638*
X1973638D02*
G03X1973138Y1825924I-0J-500D01*
G01X1973138D02*
Y1816817D01*
X1971437Y1815117D02*
G03X1973138Y1816817I0J1700D01*
G01X1971437Y1815117D02*
X1940892D01*
X1939192Y1816817D02*
G03X1940892Y1815117I1700J-0D01*
G01X1939192Y1816817D02*
Y1822376D01*
G03X1938236Y1822580I-500J-0*
G01X1935954Y1821102D02*
G03X1938236Y1822580I-0J2500D01*
G01X1935954Y1821102D02*
X1930354D01*
X1928700Y1821727D02*
G03X1930354Y1821102I1654J1875D01*
G01X1928700Y1821727D02*
G03X1928370Y1821852I-330J-375D01*
G01X1920086*
G03X1919733Y1821705I0J-500*
G01X1914862Y1816835*
G03X1914716Y1816481I354J-354*
G01Y1812290*
G03X1915385Y1811819I500J-0*
G01X1921763Y1810831D02*
G03X1915385Y1811819I-4097J-5365D01*
G01X1921763Y1810831D02*
G03X1922556Y1811126I303J397D01*
G01X1925003Y1813114D02*
G03X1922556Y1811126I-0J-2500D01*
G01X1925003Y1813114D02*
X1928903D01*
X1930444Y1812582D02*
G03X1928903Y1813114I-1541J-1968D01*
G01X1930444Y1812582D02*
G03X1931061I309J393D01*
G01X1932603Y1813114D02*
G03X1931061Y1812582I-0J-2500D01*
G01X1932603Y1813114D02*
X1936503D01*
X1938591Y1811989D02*
G03X1936503Y1813114I-2088J-1375D01*
G01X1938591Y1811989D02*
G03X1939008Y1811764I417J275D01*
G01X1939965*
G03X1940173Y1811809I-0J500*
G01X1940880Y1811963D02*
G03X1940173Y1811809I0J-1700D01*
G01X1940880Y1811963D02*
X1943244D01*
X1943951Y1811809D02*
G03X1943244Y1811963I-707J-1546D01*
G01X1943951Y1811809D02*
G03X1944159Y1811764I208J455D01*
G01X1955500*
X1958116Y1810680D02*
G03X1955500Y1811764I-2616J-2616D01*
G01X1958116Y1810680D02*
X1959908Y1808889D01*
X1960004Y1808789D02*
G03X1959908Y1808889I-2713J-2517D01*
G01X1960004Y1808789D02*
X1961867Y1806780D01*
G03X1961893Y1806754I367J340*
G01X1963089Y1804009D02*
G03X1961893Y1806754I-3750J-0D01*
G01X1963089Y1804009D02*
Y1799009D01*
X1961304Y1795815D02*
G03X1963089Y1799009I-1965J3194D01*
G01X1961304Y1795815D02*
G03X1961066Y1795389I262J-426D01*
G01Y1791670*
X1958066Y1788670D02*
G03X1961066Y1791670I0J3000D01*
G01X1958066Y1788670D02*
X1955765D01*
G03X1955265Y1788170I0J-500*
G01Y1782677*
X1952765Y1780177D02*
G03X1955265Y1782677I0J2500D01*
G01X1952765Y1780177D02*
X1950265D01*
X1947802Y1782250D02*
G03X1950265Y1780177I2463J427D01*
G01X1947802Y1782250D02*
G03X1947457Y1782642I-493J-86D01*
G01X1945932Y1783561D02*
G03X1947457Y1782642I2617J2616D01*
G01X1945932Y1783561D02*
X1943819Y1785674D01*
G03X1943060Y1785613I-354J-353*
G01X1941682Y1784908D02*
G03X1943060Y1785613I-0J1700D01*
G01X1941682Y1784908D02*
X1939318D01*
X1937618Y1786608D02*
G03X1939318Y1784908I1700J0D01*
G01X1937618Y1786608D02*
Y1789978D01*
G03X1937469Y1790334I-500J0*
G01X1936353Y1793003D02*
G03X1937469Y1790334I3750J0D01*
G01X1936353Y1793003D02*
Y1795966D01*
G03X1936220Y1796306I-500J-0*
G01X1935397Y1797193*
G03X1935384Y1797207I-367J-340*
G01X1935283Y1797307*
G03X1934930Y1797453I-353J-354*
G01X1929353*
G03X1928853Y1796953I0J-500*
G01Y1793003*
X1922809Y1790037D02*
G03X1928853Y1793003I2294J2966D01*
G01X1922809Y1790037D02*
G03X1922029Y1789799I-306J-396D01*
G01X1919658Y1788091D02*
G03X1922029Y1789799I-0J2500D01*
G01X1919658Y1788091D02*
X1913158D01*
X1911873Y1788446D02*
G03X1913158Y1788091I1285J2145D01*
G01X1911873Y1788446D02*
G03X1911116Y1788017I-257J-429D01*
G01Y1782078*
G03X1911262Y1781725I500J0*
G01X1915287Y1777700*
G03X1915641Y1777553I354J353*
G01X1921327*
G03X1921771Y1777824I-0J500*
G01X1928853Y1776103D02*
G03X1921771Y1777824I-3750J0D01*
G01X1928853Y1776103D02*
Y1773141D01*
G03X1928987Y1772801I500J-0*
G01X1929810Y1771914*
G03X1929823Y1771900I366J340*
G01X1932415Y1769308*
G03X1932574Y1769201I353J354*
G01X1933755Y1768407D02*
G03X1932574Y1769201I-2616J-2617D01*
G01X1933755Y1768407D02*
X1933852Y1768310D01*
G03X1934691Y1768546I353J354*
G01X1936064Y1770221D02*
G03X1934691Y1768546I1056J-2266D01*
G01X1936064Y1770221D02*
G03X1936353Y1770674I-211J453D01*
G01Y1771603*
Y1776103*
X1943853D02*
G03X1936353I-3750J0D01*
G01X1943853D02*
Y1771603D01*
X1943765Y1770795D02*
G03X1943853Y1771603I-3662J808D01*
G01X1943765Y1770795D02*
G03X1943753Y1770687I488J-108D01*
G01Y1765155*
X1943548Y1763940D02*
G03X1943753Y1765155I-3495J1215D01*
G01X1943548Y1763940D02*
G03X1943520Y1763775I472J-165D01*
G01Y1763273*
G03X1943994Y1762774I500J-0*
G01X1946990Y1761979D02*
G03X1943994Y1762774I-3380J-6696D01*
G01X1946990Y1761979D02*
G03X1947715Y1762425I225J446D01*
G01Y1768277*
X1950215Y1770777D02*
G03X1947715Y1768277I0J-2500D01*
G01X1950215Y1770777D02*
X1967815D01*
X1970315Y1768277D02*
G03X1967815Y1770777I-2500J0D01*
G01X1970315Y1768277D02*
Y1761277D01*
X1967815Y1758777D02*
G03X1970315Y1761277I0J2500D01*
G01X1967815Y1758777D02*
X1964383D01*
G03X1963895Y1758386I-0J-500*
G01X1962551Y1755941D02*
G03X1963895Y1758386I-3536J3536D01*
G01X1962551Y1755941D02*
X1958357Y1751748D01*
X1957877Y1751326D02*
G03X1958357Y1751748I-3056J3957D01*
G01X1957877Y1751326D02*
G03X1958183Y1750430I306J-396D01*
G01X1995219*
G03X1995573Y1750577I0J500*
G01X2000882Y1755886*
G03X2001028Y1756239I-354J353*
G01Y1757594*
X2002112Y1760210D02*
G03X2001028Y1757594I2616J-2616D01*
G01X2002112Y1760210D02*
X2009718Y1767816D01*
G03X2009865Y1768170I-353J354*
G01Y1771230*
X2012365Y1773730D02*
G03X2009865Y1771230I-0J-2500D01*
G01X2012365Y1773730D02*
X2019565D01*
X2022065Y1771230D02*
G03X2019565Y1773730I-2500J0D01*
G01X2022065Y1771230D02*
Y1768170D01*
G03X2022211Y1767816I500J-0*
G01X2023982Y1766046*
G03X2024335Y1765900I353J354*
G01X2029865*
G03X2030195Y1766025I-0J500*
G01X2031849Y1766650D02*
G03X2030195Y1766025I0J-2501D01*
G01X2031849Y1766650D02*
X2037449D01*
X2037831Y1766620D02*
G03X2037449Y1766650I-382J-2471D01*
G01X2037831Y1766620D02*
G03X2038407Y1767114I76J494D01*
G01Y1767283*
X2038907Y1767784D02*
G03X2038407Y1767283I0J-501D01*
G01X2038907Y1767784D02*
X2053607D01*
G03X2054107Y1768284I-0J500*
G01Y1771516*
X2054114Y1771708D02*
G03X2054107Y1771516I2493J-192D01*
G01X2054114Y1771708D02*
G03X2053615Y1772246I-499J38D01*
G01X2047932*
X2046232Y1773946D02*
G03X2047932Y1772246I1700J0D01*
G01X2046232Y1773946D02*
Y1778803D01*
G03X2046187Y1779012I-500J0*
G01X2045958Y1780056D02*
G03X2046187Y1779012I2500J-0D01*
G01X2045958Y1780056D02*
Y1790056D01*
X2048458Y1792556D02*
G03X2045958Y1790056I0J-2500D01*
G01X2048458Y1792556D02*
X2058458D01*
X2059270Y1792420D02*
G03X2058458Y1792556I-812J-2364D01*
G01X2059270Y1792420D02*
G03X2059933Y1792893I163J473D01*
G01Y1830274D02*
Y1830990D01*
G03X2059762Y1831366I-500J0*
G01X2055692Y1834935*
G03X2055362Y1835059I-330J-376*
G01X2052998*
G03X2052509Y1834455I0J-500*
G01X2051874Y1831470D02*
G03X2052509Y1834455I-3033J2206D01*
G01X2051874Y1831470D02*
G03Y1830882I404J-294D01*
G01X2051891Y1830858D02*
G03X2051874Y1830882I-3050J-2182D01*
G01X2051891Y1830858D02*
G03X2052298Y1830649I407J291D01*
G01X2057316*
X2059080Y1829920D02*
G03X2057316Y1830649I-1764J-1771D01*
G01X2059080Y1829920D02*
G03X2059933Y1830274I353J354D01*
G01X2027391Y1803850D02*
Y1804426D01*
G03X2026891Y1804926I-500J0*
G01X2023950*
G03X2023623Y1804804I0J-500*
G01X2022667Y1803976*
G03X2022641Y1803951I328J-378*
G01X2021968Y1803278*
G03X2022336Y1802425I354J-353*
G01X2022441Y1802426D02*
G03X2022336Y1802425I-0J-3750D01*
G01X2022441Y1802426D02*
X2025903D01*
G03X2026243Y1802560I0J500*
G01X2027131Y1803383*
G03X2027144Y1803396I-340J366*
G01X2027244Y1803496*
G03X2027391Y1803850I-353J354*
G54D40*
G01X2015365Y1750030D02*
X2016565D01*
X2015365Y1768230D02*
X2016565D01*
G54D41*
X1993401Y1836524D03*
X2007543D03*
Y1822382D03*
X1993401D03*
G54D43*
X1916408Y1793841D03*
Y1781241D03*
G54D44*
X2048692Y1756040D02*
X2044192D01*
X2048692Y1769040D02*
X2044192D01*
G54D45*
X2061607Y1755216D02*
X2059107D01*
X2061607Y1769016D02*
X2059107D01*
G54D46*
X1917666Y1855466D03*
G54D47*
Y1845466D03*
Y1835466D03*
Y1815466D03*
Y1805466D03*
G54D48*
X2053458Y1785056D03*
X2014082Y1785025D03*
G54D49*
X2033458Y1785056D03*
X1994082Y1785025D03*
X1974082D03*
X1943610Y1755283D03*
Y1861283D03*
G54D50*
X2054461Y1854680D03*
G54D51*
X1951515Y1788427D02*
Y1783927D01*
G54D52*
X1944339Y1799009D02*
Y1804009D01*
X1949339Y1799009D02*
Y1804009D01*
X1954339Y1799009D02*
Y1804009D01*
X1959339Y1799009D02*
Y1804009D01*
X1964339Y1799009D02*
Y1804009D01*
X1969339Y1799009D02*
Y1804009D01*
X1974339Y1799009D02*
Y1804009D01*
X1979339Y1799009D02*
Y1804009D01*
X1984339Y1799009D02*
Y1804009D01*
Y1838009D02*
Y1843009D01*
X1979339Y1838009D02*
Y1843009D01*
X1974339Y1838009D02*
Y1843009D01*
X1969339Y1838009D02*
Y1843009D01*
X1964339Y1838009D02*
Y1843009D01*
X1959339Y1838009D02*
Y1843009D01*
X1954339Y1838009D02*
Y1843009D01*
X1949339Y1838009D02*
Y1843009D01*
X1944339Y1838009D02*
Y1843009D01*
X2048841Y1798676D02*
X2043841D01*
X2048841Y1803676D02*
X2043841D01*
X2048841Y1808676D02*
X2043841D01*
X2048841Y1813676D02*
X2043841D01*
X2048841Y1818676D02*
X2043841D01*
X2048841Y1823676D02*
X2043841D01*
X2048841Y1828676D02*
X2043841D01*
X2048841Y1833676D02*
X2043841D01*
X2027441D02*
X2022441D01*
X2027441Y1828676D02*
X2022441D01*
X2027441Y1823676D02*
X2022441D01*
X2027441Y1818676D02*
X2022441D01*
X2027441Y1813676D02*
X2022441D01*
X2027441Y1808676D02*
X2022441D01*
X2027441Y1803676D02*
X2022441D01*
X2027441Y1798676D02*
X2022441D01*
X1940103Y1797503D02*
Y1793003D01*
X1935103Y1797503D02*
Y1793003D01*
X1930103Y1797503D02*
Y1793003D01*
X1925103Y1797503D02*
Y1793003D01*
Y1776103D02*
Y1771603D01*
X1930103Y1776103D02*
Y1771603D01*
X1935103Y1776103D02*
Y1771603D01*
X1940103Y1776103D02*
Y1771603D01*
G54D53*
X1985965Y1759130D03*
G54D54*
X2015965Y1750030D02*
X2027498D01*
X2033508Y1756040*
X2046442*
Y1755216*
X2060357*
X1934999Y1761931D02*
Y1753429D01*
X1941698Y1746730*
X1996959*
X2004728Y1754500*
Y1757594*
X2015365Y1768230*
X2015965*
X1934999Y1761931D02*
X1938320Y1763555D01*
X1939070Y1763922*
Y1765155*
X1940053*
Y1773853*
X1940103*
X1925075D02*
Y1771577D01*
X1927151Y1769340*
X1930700Y1765790*
X1931139*
X1934999Y1761931*
X1925075Y1773853D02*
X1925103D01*
X2015965Y1768230D02*
X2016565D01*
X2022595Y1762199*
X2034649*
X1907416Y1780339D02*
Y1825216D01*
X1917666Y1835466*
X1907416Y1780339D02*
X1913901Y1773853D01*
X1925075*
X1974034Y1785233D02*
Y1785025D01*
X1974082*
X1974034Y1785233D02*
X1983143Y1794343D01*
X2005098*
X2009452Y1798697*
Y1801086*
X2020085Y1811719*
X2022441Y1813676*
X2024941*
X2014082Y1785025D02*
Y1800625D01*
X2020130Y1806673*
X2020130D02*
X2022441Y1808676D01*
X2024941*
X2033458Y1785056D02*
X2042000D01*
X2044000Y1787056*
Y1790000*
X2048000Y1794000*
X2058018*
X2060000Y1795982*
Y1826199*
X2060000*
X2060357Y1779946D02*
Y1769016D01*
X2060245Y1785056D02*
X2060357Y1784944D01*
Y1779946*
X1916408Y1793841D02*
X1921192Y1798625D01*
Y1798754*
X1923591Y1801153*
X1936669*
X1938056Y1799767*
X1940058Y1797608*
X1940103Y1795253D02*
X1940131D01*
X1911016Y1799233D02*
Y1818221D01*
X1918347Y1825552*
X1933154*
X1911016Y1799233D02*
X1916408Y1793841D01*
X1917666Y1805466D02*
X1926953Y1806823D01*
Y1808064*
X1940058Y1797608D02*
X1940131Y1797530D01*
Y1795253*
X1944339Y1801509D02*
X1944349D01*
Y1790377*
X1948549Y1786177*
X1951515*
X1959339Y1801509D02*
X1959367D01*
X1979339D02*
Y1805339D01*
X1982000Y1808000*
X1986000*
X1992973Y1801027*
X1993641*
X1974339Y1801509D02*
Y1806339D01*
X1980000Y1812000*
X1988000*
X1992000Y1808000*
X2005000*
X2014000Y1817000*
Y1829736*
X2001241Y1801027D02*
X2001376Y1800892D01*
X2003759*
X2021543Y1818676*
X2024941*
Y1798676D02*
Y1798648D01*
X2027467*
X2029705Y1800724*
X2031091Y1802110*
X2040247Y1804220D02*
X2040791Y1803676D01*
X2042611*
X2046341*
Y1798676D02*
X2054516D01*
Y1798642*
X1943244Y1808064D02*
X1940880D01*
X1934553*
X1943244D02*
X1955500D01*
X1957291Y1806272*
X1959367Y1804035*
Y1801509*
X2002989Y1814142D02*
Y1814992D01*
X2007543Y1819545*
Y1822382*
X2046341Y1813676D02*
Y1813626D01*
X2054516*
Y1812420*
X2046341Y1808676D02*
X2048841D01*
X2052916Y1806992*
X2054516*
Y1806242*
X1933154Y1825552D02*
X1934004D01*
X1940452Y1832000*
X1961266*
X1964339Y1835073*
X2046341Y1823676D02*
X2048841D01*
X2052916Y1825449*
X2054516*
Y1826199*
X2046341Y1818676D02*
Y1818726D01*
X2054516*
Y1820020*
X1964339Y1835073D02*
Y1834722D01*
X1968937Y1830124*
X1996052*
X1999801*
X2007543Y1822382D02*
X1999801Y1830124D01*
X2000000Y1830323*
Y1836524*
X2022441Y1828676D02*
Y1823676D01*
X2024941*
X2022441Y1828676D02*
X2024941D01*
X2054516Y1833799D02*
X2056201D01*
X2060000Y1830000*
Y1826199*
X1911016Y1842116D02*
Y1860710D01*
X1912422Y1862116*
X1932161*
X1940394Y1853883*
X1964374*
X1966594Y1856104*
X2017697*
X2027862Y1845939*
Y1845089*
X1911016Y1842116D02*
X1917666Y1835466D01*
Y1845466D02*
X1925962Y1841832D01*
X1926712Y1841504*
Y1840482*
X1934312D02*
Y1841082D01*
X1939889Y1846659*
X1965905*
X1967291Y1845272*
X1969339Y1843065*
Y1840509*
X1964339D02*
Y1835073D01*
X1979339Y1840509D02*
Y1846059D01*
X1985784Y1852504*
X2013142*
X2016958Y1848687*
Y1833997*
X2022279Y1828676*
X2022441*
X1989408Y1840516D02*
X1993401Y1836524D01*
X1984339Y1840509D02*
X1984347Y1840516D01*
X1989408*
X2007543Y1836524D02*
X2010776Y1839756D01*
Y1846976*
X2007543Y1836524D02*
X2014000Y1830066D01*
Y1829736*
X2027862Y1845089D02*
Y1839453D01*
X2031091Y1836224*
Y1802110*
X2035462Y1845089D02*
Y1809006D01*
X2040247Y1804220*
X1917666Y1855466D02*
X1923716D01*
X1926712Y1852469*
Y1851048*
X1934312D02*
X1938138D01*
X1938915Y1850271*
X1967384*
X1972336Y1845319*
X1974339Y1843009*
Y1840509*
X1989339Y1846976D02*
Y1840586D01*
X1989408Y1840516*
X2003176Y1846976D02*
X1999918D01*
X2000000Y1846894*
Y1836524*
X1996939Y1846976D02*
X1999918D01*
G54D55*
X2060245Y1785056D02*
X2061000D01*
X2064183Y1788239*
Y1833143*
X2053458Y1785056D02*
X2060245D01*
X1943610Y1861283D02*
X2027586D01*
X2049560Y1839309*
X2057149*
X2064183Y1833143*
G74*
X0Y0D02*
M02*
